<svg width="56" height="54" viewBox="0 0 56 54" fill="none" xmlns="http://www.w3.org/2000/svg">
<g clip-path="url(#clip0)">
<path d="M41.6271 21.6658L44.9173 21.4643C44.9229 21.4639 44.9289 21.4635 44.9349 21.4631C47.2796 21.272 49.3842 20.0852 50.7095 18.2061L53.3106 14.5191C55.5746 11.3092 56.4517 7.43224 55.7797 3.60275C55.6476 2.85064 55.2495 2.15756 54.659 1.65189C54.0681 1.1458 53.3085 0.84694 52.5198 0.810614C48.5028 0.624857 44.6255 1.93135 41.5989 4.48778L38.122 7.42481C36.3502 8.92118 35.3829 11.0822 35.4675 13.3546C35.4679 13.36 35.4679 13.3657 35.4683 13.3715L35.6559 16.5513C35.729 17.7909 35.2586 19.014 34.3678 19.9048L7.20423 46.866C6.47706 47.5987 6.10151 48.6039 6.14723 49.6965C6.19764 50.8994 6.76887 52.0808 7.67549 52.8573C8.49452 53.5586 9.62032 53.9582 10.7457 53.9582C10.8662 53.9582 10.9867 53.9537 11.1067 53.9442C12.2351 53.8571 13.2233 53.3766 13.8924 52.5865L38.3339 23.3054C39.1444 22.3419 40.3449 21.7442 41.6271 21.6658ZM37.0291 22.285L12.5897 51.5636C12.2163 52.0044 11.6421 52.2761 10.973 52.3277C10.177 52.3892 9.36098 52.1332 8.78932 51.6437C8.21766 51.1537 7.85707 50.4016 7.82502 49.6309C7.79768 48.9832 8.00746 48.3999 8.41164 47.9929L35.573 21.0338C36.7907 19.8165 37.4315 18.1492 37.3324 16.4592L37.1449 13.2877C37.0812 11.509 37.8396 9.81777 39.2268 8.64585L42.7038 5.70882C45.4023 3.42979 48.8604 2.26612 52.4399 2.43042C52.8475 2.4494 53.2397 2.60379 53.5452 2.8655C53.8506 3.1268 54.0562 3.4851 54.1245 3.87354C54.7235 7.28776 53.9417 10.7437 51.9233 13.6051L49.3223 17.2926C48.2845 18.7638 46.6374 19.6939 44.802 19.8462L41.5207 20.0468C39.7724 20.1541 38.1361 20.969 37.0291 22.285Z" fill="#FFC107"/>
<path d="M54.4492 46.6624L36.2361 30.6349C35.8934 30.3331 35.3628 30.3571 35.0501 30.6882C34.7382 31.0192 34.763 31.5323 35.1056 31.8341L53.314 47.8579C53.7473 48.2447 53.9929 48.8147 54.0062 49.4628C54.022 50.2339 53.7088 51.0054 53.1683 51.5276C52.6283 52.0494 51.8311 52.3528 51.0312 52.3371C50.3605 52.3243 49.7704 52.087 49.3744 51.6729L33.145 34.4578C32.8326 34.1263 32.3016 34.1028 31.9589 34.4041C31.6163 34.7059 31.5915 35.219 31.9038 35.55L48.1371 52.7693C48.8506 53.5148 49.8666 53.9375 50.9983 53.959C51.0278 53.9594 51.0569 53.9598 51.0864 53.9598C52.3027 53.9598 53.5191 53.483 54.3552 52.6748C55.2123 51.8467 55.7092 50.6343 55.6844 49.431C55.6622 48.3376 55.2251 47.3559 54.4492 46.6624Z" fill="#FFC107"/>
<path d="M10.1292 21.5138C11.5186 22.7505 13.3237 23.4555 15.2121 23.4993C15.2181 23.4997 15.2241 23.4997 15.2297 23.4997L18.5263 23.5096C19.8115 23.5133 21.0466 24.0405 21.9135 24.9532L23.3657 26.4933C23.5315 26.6691 23.7584 26.7583 23.9865 26.7583C24.1882 26.7583 24.3907 26.6885 24.5513 26.547C24.8944 26.2452 24.9192 25.7321 24.6069 25.401L23.1525 23.8588C21.9682 22.6114 20.284 21.8931 18.5318 21.8873L15.2442 21.8774C13.7834 21.8415 12.3867 21.3012 11.3045 20.3546L1.75086 9.38176C1.65344 9.26948 1.66071 9.10684 1.76795 9.00323C1.84143 8.93182 1.92774 8.9215 1.9726 8.9215C2.01746 8.9215 2.10376 8.93182 2.17768 9.00323L10.8739 17.4056C11.7335 18.2362 13.1323 18.2362 13.9919 17.4052L15.0139 16.4182V16.4178L16.8284 14.6647C16.8284 14.6647 16.8288 14.6647 16.8288 14.6643L16.8293 14.6639L17.8508 13.6769C18.7104 12.8463 18.7104 11.4949 17.8508 10.6643L9.15462 2.26231C9.04183 2.15333 9.04183 1.97542 9.15462 1.86644C9.26186 1.76283 9.4302 1.75581 9.54641 1.84993L20.9035 11.0808C21.8836 12.126 22.4429 13.4758 22.48 14.8868L22.4899 18.0636C22.4958 19.7561 23.2397 21.3833 24.5325 22.5301L26.0886 23.8993C26.4316 24.2011 26.9623 24.1771 27.2746 23.846C27.5865 23.5146 27.5617 23.0019 27.2191 22.7001L25.6656 21.333C24.7184 20.4933 24.1732 19.2995 24.1689 18.0583L24.1587 14.8732C24.1587 14.8674 24.1587 14.8616 24.1583 14.8558C24.113 13.0313 23.3832 11.2872 22.1032 9.94481C22.0793 9.91963 22.0536 9.89569 22.0263 9.8734L10.6269 0.608661C9.83907 -0.0319941 8.69576 0.0158899 7.96773 0.71929C7.19997 1.46108 7.19997 2.66768 7.96773 3.40905L16.6639 11.8115C16.869 12.0096 16.869 12.332 16.6639 12.5301L16.2354 12.9438L6.54329 3.57995C6.21559 3.26292 5.68409 3.26292 5.35639 3.57995C5.0287 3.89656 5.0287 4.41008 5.35639 4.72669L15.0485 14.0909L14.4204 14.6973L4.72834 5.3335C4.40064 5.01688 3.86915 5.01688 3.54145 5.3335C3.21332 5.65011 3.21332 6.16362 3.54145 6.48024L13.2331 15.8445L12.805 16.2585C12.5999 16.4566 12.2663 16.4566 12.0612 16.2585L3.36457 7.85649C2.99286 7.49736 2.49854 7.29922 1.9726 7.29922C1.44666 7.29922 0.95233 7.49736 0.580625 7.85649C-0.147404 8.55989 -0.196538 9.66453 0.466123 10.4261L10.0557 21.4395C10.0783 21.4659 10.1031 21.4906 10.1292 21.5138Z" fill="#FFC107"/>
</g>
<defs>
<clipPath id="clip0">
<rect width="56" height="54" fill="white"/>
</clipPath>
</defs>
</svg>
